<?xml version="1.0" encoding="UTF-8" standalone="no"?>
<!-- Created with Inkscape (http://www.inkscape.org/) -->
<svg xmlns:inkscape="http://www.inkscape.org/namespaces/inkscape" xmlns:rdf="http://www.w3.org/1999/02/22-rdf-syntax-ns#" xmlns="http://www.w3.org/2000/svg" xmlns:xlink="http://www.w3.org/1999/xlink" xmlns:ns1="http://sozi.baierouge.fr" xmlns:cc="http://creativecommons.org/ns#" xmlns:sodipodi="http://sodipodi.sourceforge.net/DTD/sodipodi-0.dtd" xmlns:dc="http://purl.org/dc/elements/1.1/" id="svg2" xml:space="preserve" viewBox="0 0 19.934 14.817" version="1.1" inkscape:version="0.91 r13725">
  <defs id="defs6">
    <clipPath id="clipPath58">
      <path id="path60" d="m4.469 6.72 0.238 0.559c0.348 0.082 0.602-0.121 0.762-0.598 0.16-0.48 0.093-0.8-0.199-0.961-0.321-0.16-0.575-0.093-0.762 0.2-0.211 0.293-0.227 0.558-0.039 0.8z" inkscape:connector-curvature="0"/>
    </clipPath>
    <clipPath id="clipPath66">
      <path id="path68" d="m5.015-10.817h2.5v3.75h-2.5v-3.75z" inkscape:connector-curvature="0"/>
    </clipPath>
    <radialGradient id="radialGradient70" gradientUnits="userSpaceOnUse" cy="-7.8999" cx="6.2002" r="1.775">
      <stop id="stop72" style="stop-color:#ffffff;stop-opacity:.27840" offset="0"/>
      <stop id="stop74" style="stop-color:#ffffff;stop-opacity:.44710" offset="1"/>
    </radialGradient>
    <mask id="mask76">
      <g id="g78">
        <g id="g80" clip-path="url(#clipPath66)">
          <path id="path82" style="fill:url(#radialGradient70)" d="m5.015-10.817h2.5v3.75h-2.5v-3.75z" inkscape:connector-curvature="0"/>
        </g>
      </g>
    </mask>
    <radialGradient id="radialGradient86" gradientUnits="userSpaceOnUse" cy="-7.8999" cx="6.2002" r="1.775">
      <stop id="stop88" style="stop-color:#000000" offset="0"/>
      <stop id="stop90" style="stop-color:#000000" offset="1"/>
    </radialGradient>
    <clipPath id="clipPath98">
      <path id="path100" d="m2.027 5.599h0.563c0.133-0.211 0.172-0.425 0.117-0.64-0.051-0.266-0.199-0.387-0.437-0.36-0.215 0.028-0.336 0.149-0.364 0.36-0.023 0.215 0.016 0.429 0.121 0.64z" inkscape:connector-curvature="0"/>
    </clipPath>
    <clipPath id="clipPath106">
      <path id="path108" d="m1.265-10.817h2.5v2.5h-2.5v-2.5z" inkscape:connector-curvature="0"/>
    </clipPath>
    <radialGradient id="radialGradient110" gradientUnits="userSpaceOnUse" cy="-9.1499" cx="2.9004" r="1.25">
      <stop id="stop112" style="stop-color:#ffffff;stop-opacity:.27840" offset="0"/>
      <stop id="stop114" style="stop-color:#ffffff;stop-opacity:.44710" offset="1"/>
    </radialGradient>
    <mask id="mask116">
      <g id="g118">
        <g id="g120" clip-path="url(#clipPath106)">
          <path id="path122" style="fill:url(#radialGradient110)" d="m1.265-10.817h2.5v2.5h-2.5v-2.5z" inkscape:connector-curvature="0"/>
        </g>
      </g>
    </mask>
    <radialGradient id="radialGradient126" gradientUnits="userSpaceOnUse" cy="-9.1499" cx="2.9004" r="1.25">
      <stop id="stop128" style="stop-color:#000000" offset="0"/>
      <stop id="stop130" style="stop-color:#000000" offset="1"/>
    </radialGradient>
    <clipPath id="clipPath138">
      <path id="path140" d="m6.148 4.478 0.2-0.199c0.027-0.266-0.028-0.492-0.16-0.68-0.133-0.214-0.266-0.16-0.399 0.161-0.055 0.132-0.055 0.281 0 0.441 0.078 0.187 0.199 0.277 0.359 0.277z" inkscape:connector-curvature="0"/>
    </clipPath>
    <clipPath id="clipPath146">
      <path id="path148" d="m6.265-12.367h2.5v2.5h-2.5v-2.5z" inkscape:connector-curvature="0"/>
    </clipPath>
    <radialGradient id="radialGradient150" gradientUnits="userSpaceOnUse" cy="-10.55" cx="7.6001" r="0.925">
      <stop id="stop152" style="stop-color:#ffffff;stop-opacity:.27840" offset="0"/>
      <stop id="stop154" style="stop-color:#ffffff;stop-opacity:.44710" offset="1"/>
    </radialGradient>
    <mask id="mask156">
      <g id="g158">
        <g id="g160" clip-path="url(#clipPath146)">
          <path id="path162" style="fill:url(#radialGradient150)" d="m6.265-12.367h2.5v2.5h-2.5v-2.5z" inkscape:connector-curvature="0"/>
        </g>
      </g>
    </mask>
    <radialGradient id="radialGradient166" gradientUnits="userSpaceOnUse" cy="-10.55" cx="7.6001" r="0.925">
      <stop id="stop168" style="stop-color:#000000" offset="0"/>
      <stop id="stop170" style="stop-color:#000000" offset="1"/>
    </radialGradient>
    <clipPath id="clipPath178">
      <path id="path180" d="m8.906 4.478 1.121 0.364c0-0.11 0.016-0.321 0.039-0.641 0-0.27-0.05-0.453-0.16-0.563-0.027-0.05-0.172-0.078-0.437-0.078-0.266 0-0.426 0.028-0.481 0.078-0.133 0.11-0.187 0.243-0.16 0.403 0.055 0.16 0.078 0.304 0.078 0.437z" inkscape:connector-curvature="0"/>
    </clipPath>
    <clipPath id="clipPath186">
      <path id="path188" d="m10.015-12.267h3.75v2.5h-3.75v-2.5z" inkscape:connector-curvature="0"/>
    </clipPath>
    <radialGradient id="radialGradient190" gradientUnits="userSpaceOnUse" cy="-10.5" cx="11.8" r="1.9">
      <stop id="stop192" style="stop-color:#ffffff;stop-opacity:.27840" offset="0"/>
      <stop id="stop194" style="stop-color:#ffffff;stop-opacity:.44710" offset="1"/>
    </radialGradient>
    <mask id="mask196">
      <g id="g198">
        <g id="g200" clip-path="url(#clipPath186)">
          <path id="path202" style="fill:url(#radialGradient190)" d="m10.015-12.267h3.75v2.5h-3.75v-2.5z" inkscape:connector-curvature="0"/>
        </g>
      </g>
    </mask>
    <radialGradient id="radialGradient206" gradientUnits="userSpaceOnUse" cy="-10.5" cx="11.8" r="1.9">
      <stop id="stop208" style="stop-color:#000000" offset="0"/>
      <stop id="stop210" style="stop-color:#000000" offset="1"/>
    </radialGradient>
  </defs>
  <g id="g10" transform="matrix(1.25 0 0 -1.25 0 14.817)">
    <g id="g12">
      <path id="path14" style="fill-rule:evenodd;fill:#81675c" d="m9.27 11.799 2.199-1c0.879-0.239 1.707-0.614 2.48-1.118 0.184-0.16 0.492-0.429 0.918-0.8 0.375-0.321 0.723-0.493 1.039-0.52 0.082-1.547-0.105-2.547-0.558-3-0.133-0.16-0.321-0.32-0.559-0.48-0.187-0.161-0.309-0.36-0.359-0.602-0.028-0.187-0.055-0.398-0.082-0.641-0.028-0.183-0.149-0.359-0.36-0.519-0.988-0.801-2.105-1.359-3.359-1.68-0.801-0.215-1.52-0.492-2.16-0.84-0.879-0.398-1.774-0.601-2.68-0.601-0.242 0-0.734 0.109-1.48 0.32-0.907 0.082-1.536 0.188-1.879 0.32-0.27 0.137-0.524 0.52-0.762 1.161l-0.84 2.402c-0.055 0.187-0.226 0.504-0.519 0.957-0.266 0.402-0.36 0.855-0.282 1.363 0.082 0.477 0.293 0.891 0.641 1.239-0.238 0.32-0.32 1.054-0.238 2.199 0.023 0.586 0.531 0.933 1.519 1.039 0.985 0.109 1.586 0.215 1.797 0.32 0.617 0.27 1.121 0.43 1.524 0.481 0.531 0.054 1.199 0.066 2 0.043 0.453 0 1.117-0.016 2-0.043z" inkscape:connector-curvature="0"/>
      <path id="path16" style="fill-rule:evenodd;fill:#8c8d8a" d="m12.59 3.4c-0.563-0.32-1.535-0.535-2.922-0.64l-0.48 0.039c0.32 0.082 0.949 0.425 1.878 1.043 0.75 0.503 1.414 0.73 2 0.679l1.122-0.203-1.598-0.918z" inkscape:connector-curvature="0"/>
      <path id="path18" style="fill-rule:evenodd;fill:#8c8d8a" d="m8.789 4.279c-0.773-0.266-1.762-0.398-2.961-0.398-0.426 0-1.492 0.05-3.199 0.16l1.277 0.039c-0.051 0.32-0.492 0.492-1.316 0.519-0.934-0.054-1.547-0.078-1.844-0.078l-0.437 0.637c-0.133 0.187-0.227 0.414-0.282 0.684l0.481-0.204c0.426-0.078 1-0.105 1.719-0.078 0.375 0 0.933 0.012 1.679 0.039 0.508 0 1.282-0.027 2.321-0.078 0.933 0 1.707 0.024 2.32 0.078 0.375 0.055 0.801 0.227 1.281 0.52 0.535 0.348 0.945 0.562 1.238 0.641 0.375 0.082 1.028 0.066 1.961-0.04 0.535 0 0.879 0.012 1.039 0.04 0.321 0.054 0.602 0.199 0.84 0.441 0.43 0.48 0.762 0.851 1 1.117 0.055-0.32 0.055-0.703 0-1.16l-0.039-0.039c-0.531-0.559-0.867-0.895-1-1-0.344-0.293-0.734-0.465-1.16-0.52-0.613 0.055-1.051 0.067-1.32 0.039-0.481-0.105-1.09-0.32-1.84-0.64-1.039-0.426-1.625-0.664-1.758-0.719z" inkscape:connector-curvature="0"/>
      <path id="path20" style="fill-rule:evenodd;fill:#8c8d8a" d="m3.027 2.72c-0.371 0.051-0.718 0.172-1.039 0.36-0.375 0.238-0.679 0.441-0.922 0.601l-0.117 0.079-0.082 0.32 1.641-0.039c0.613-0.133 1.535-0.426 2.762-0.883 1.171-0.293 2.039-0.449 2.597-0.477l0.039-0.043-2.476-0.039c-0.188 0.133-0.563 0.188-1.121 0.161-0.774-0.028-1.2-0.04-1.282-0.04z" inkscape:connector-curvature="0"/>
      <path id="path22" style="fill-rule:evenodd;fill:#aa907d" d="m7.27 8.56c-0.829-0.293-1.602-0.453-2.321-0.48 0.239 0.055 0.906 0.254 2 0.601 0.797 0.266 1.453 0.426 1.957 0.477-0.797-0.293-1.344-0.492-1.636-0.598z" inkscape:connector-curvature="0"/>
      <path id="path24" style="fill-rule:evenodd;fill:#aa907d" d="m0.789 8.799h0.481c0.05 0 0.343-0.172 0.878-0.52-0.558 0.133-1.011 0.309-1.359 0.52z" inkscape:connector-curvature="0"/>
      <path id="path26" style="fill-rule:evenodd;fill:#aa907d" d="m10.59 9.599h-0.883c-0.051-0.16-0.039-0.293 0.039-0.398 0.242-0.109 0.508-0.109 0.801 0 0.082 0.105 0.094 0.238 0.043 0.398zm-2.242 0.68-1.52 0.441c-0.398 0.106-0.652 0.055-0.762-0.16-0.132-0.215-0.05-0.441 0.243-0.679 0.347-0.293 1.027-0.375 2.039-0.243 0.054 0.293 0.054 0.508 0 0.641zm3.121-0.16c0.851-0.348 1.386-0.32 1.597 0.082l0.883-0.52 0.719-0.64-0.762-0.563c0.16-0.293 0.364-0.371 0.602-0.238 0.215 0.133 0.32 0.348 0.32 0.641 0.215-0.161 0.465-0.321 0.762-0.481-0.32-0.402-1.028-0.746-2.121-1.039-1.067 0.051-1.813 0.238-2.242 0.559l0.921 0.8-0.242-0.082c0.453 0.27 0.801 0.575 1.043 0.922-0.508 0.106-1.094-0.066-1.761-0.519-0.665-0.453-1.227-0.629-1.68-0.52-0.055 0.293-0.078 0.492-0.078 0.598l-0.403 0.039c-0.398 0-1.066-0.039-2-0.117-0.851-0.082-1.519-0.11-2-0.082-0.691 0-1.574 0.148-2.64 0.441-0.532 0.106-0.907 0.254-1.117 0.442l-0.204 0.156c0.321 0.16 0.817 0.347 1.481 0.562 0.242 0.106 0.601 0.332 1.082 0.68 0.453 0.16 1.16 0.254 2.117 0.281 0.934 0.024 1.684-0.027 2.242-0.16 0.746-0.16 1.907-0.574 3.481-1.242z" inkscape:connector-curvature="0"/>
      <path id="path28" style="fill-rule:evenodd;fill:#56443d" d="m2.746 7.158c0.32-0.051 0.961-0.078 1.922-0.078 0.855-0.055 1.414-0.227 1.68-0.52-1.84-0.375-3.934-0.336-6.282 0.121 0.137 0.399 0.336 0.758 0.602 1.079l-0.121 0.238c0.75-0.477 1.48-0.758 2.199-0.84z" inkscape:connector-curvature="0"/>
      <path id="path30" style="fill-rule:evenodd;fill:#56443d" d="m7.906 2.638-0.039 0.043 1.16 0.079 0.161 0.039 0.96-0.079c0.454 0.028 1.161 0.172 2.122 0.438 0.933 0.269 1.636 0.641 2.117 1.121h0.043c-0.028-0.187-0.055-0.398-0.082-0.641-0.028-0.183-0.149-0.359-0.36-0.519-0.64-0.481-1.441-0.934-2.398-1.359-1.817-0.106-3.043 0.187-3.684 0.878z" inkscape:connector-curvature="0"/>
      <path id="path32" style="fill-rule:evenodd;fill:#56443d" d="m3.027 2.72c0.082 0 0.508 0.012 1.282 0.04 0.558 0.027 0.933-0.028 1.121-0.161l0.039-0.039c-0.508-0.027-0.879-0.054-1.121-0.082-0.426-0.051-0.707-0.25-0.84-0.597 0.187-0.028 0.586-0.067 1.199-0.121 0.508-0.028 0.906-0.079 1.199-0.161 0.774-0.187 1.524-0.425 2.242-0.718l0.481-0.2-0.16-0.082c-0.879-0.398-1.774-0.601-2.68-0.601-0.242 0-0.734 0.109-1.48 0.32-0.907 0.082-1.536 0.188-1.879 0.32-0.27 0.137-0.524 0.52-0.762 1.161l-0.52 1.281-0.199 0.68 0.117-0.079c0.243-0.16 0.547-0.363 0.922-0.601 0.321-0.188 0.668-0.305 1.039-0.36z" inkscape:connector-curvature="0"/>
      <path id="path34" style="fill-rule:evenodd;fill:#56443d" d="m13.707 5.599c0.426 0.055 0.816 0.227 1.16 0.52 0.133 0.105 0.469 0.441 1 1l0.039 0.039c0-0.449-0.078-0.879-0.238-1.277l-0.199-0.039c-0.215 0.023-0.469 0-0.762-0.082-0.371-0.106-0.613-0.161-0.719-0.161h-0.281z" inkscape:connector-curvature="0"/>
      <path id="path36" style="fill-rule:evenodd;fill:#464d53" d="m7.867 2.681c-0.558 0.028-1.426 0.184-2.597 0.477-1.227 0.457-2.149 0.75-2.762 0.883h0.121c1.707-0.11 2.773-0.16 3.199-0.16 1.199 0 2.188 0.132 2.961 0.398 0.133 0.055 0.719 0.293 1.758 0.719 0.75 0.32 1.359 0.535 1.84 0.64 0.269 0.028 0.707 0.016 1.32-0.039h0.281c0.106 0 0.348 0.055 0.719 0.161 0.293 0.082 0.547 0.105 0.762 0.082l0.199 0.039c-0.106-0.266-0.215-0.442-0.32-0.52-0.133-0.16-0.321-0.32-0.559-0.48-0.187-0.161-0.309-0.36-0.359-0.602h-0.043l-1.321 0.242c-0.586 0.051-1.25-0.176-2-0.679-0.933-0.618-1.558-0.961-1.878-1.043l-0.161-0.039-1.16-0.079z" inkscape:connector-curvature="0"/>
      <path id="path38" style="fill-rule:evenodd;fill:#cbbcb0" d="m0.828 9.842 0.238 0.156 0.204-0.156c0.21-0.188 0.585-0.336 1.117-0.442 1.066-0.293 1.949-0.441 2.64-0.441 0.481-0.028 1.149 0 2 0.082 0.848 0.07 1.473 0.113 1.879 0.117-0.504-0.051-1.16-0.211-1.957-0.477-1.094-0.347-1.761-0.546-2-0.601-0.933-0.238-1.722-0.254-2.359-0.039l-0.442 0.238c-0.535 0.348-0.828 0.52-0.878 0.52h-0.481l-0.359-0.118c-0.055 0.504-0.055 0.934 0 1.278l0.039 0.32 0.359-0.437z" inkscape:connector-curvature="0"/>
      <path id="path40" style="fill-rule:evenodd;fill:#cbbcb0" d="m10.828 8.361 1.32 0.359-0.921-0.8c-0.184 0.105-0.321 0.254-0.399 0.441z" inkscape:connector-curvature="0"/>
      <path id="path42" style="fill-rule:evenodd;fill:#cbbcb0" d="m10.746 8.318-0.117-0.797c-0.32-0.16-0.629-0.187-0.922-0.082 0.055 0.133 0.188 0.281 0.402 0.442 0.293 0.238 0.453 0.371 0.481 0.398l0.156 0.039z" inkscape:connector-curvature="0"/>
      <path id="path44" style="fill-rule:evenodd;fill:#cbbcb0" d="m13.469 7.361 0.398-0.043c-0.265-0.211-0.785-0.305-1.558-0.277-0.856 0.078-1.43 0.117-1.719 0.117l0.199 1.363c0-0.058 0.016-0.109 0.039-0.16 0.078-0.187 0.215-0.336 0.399-0.441 0.429-0.321 1.175-0.508 2.242-0.559z" inkscape:connector-curvature="0"/>
      <path id="path46" style="fill-rule:evenodd;fill:#cbbcb0" d="m9.27 11.799 2.199-1c0.613-0.184 1.144-0.387 1.597-0.598-0.211-0.402-0.746-0.43-1.597-0.082-1.574 0.668-2.735 1.082-3.481 1.242-0.558 0.133-1.308 0.184-2.242 0.16-0.957-0.027-1.664-0.121-2.117-0.281-0.481-0.348-0.84-0.574-1.082-0.68-0.664-0.215-1.16-0.402-1.481-0.562l-0.238-0.156-0.359 0.437c0.16 0.375 0.652 0.613 1.48 0.719 0.985 0.109 1.586 0.215 1.797 0.32 0.617 0.27 1.121 0.43 1.524 0.481 0.531 0.054 1.199 0.066 2 0.043 0.453 0 1.117-0.016 2-0.043z" inkscape:connector-curvature="0"/>
      <path id="path48" style="fill-rule:evenodd;fill:#81675c" d="m6.828 10.72 1.52-0.441c0.054-0.133 0.054-0.348 0-0.641-1.012-0.132-1.692-0.05-2.039 0.243-0.293 0.238-0.375 0.464-0.243 0.679 0.11 0.215 0.364 0.266 0.762 0.16z" inkscape:connector-curvature="0"/>
      <path id="path50" style="fill-rule:evenodd;fill:#81675c" d="m9.707 9.599h0.883c0.051-0.16 0.039-0.293-0.043-0.398-0.293-0.109-0.559-0.109-0.801 0-0.078 0.105-0.09 0.238-0.039 0.398z" inkscape:connector-curvature="0"/>
      <path id="path52" style="fill-rule:evenodd;fill:#81675c" d="m14.828 8.881c0-0.293-0.105-0.508-0.32-0.641-0.238-0.133-0.442-0.055-0.602 0.238l0.762 0.563 0.16-0.16z" inkscape:connector-curvature="0"/>
      <g id="g54">
        <g id="g56" clip-path="url(#clipPath58)">
          <g id="g62" transform="matrix(.8 0 0 -.8 -0.012 -.80033)">
            <g id="g84" mask="url(#mask76)">
              <path id="path92" style="fill-rule:evenodd;fill:url(#radialGradient86)" d="m4.469 6.72 0.238 0.559c0.348 0.082 0.602-0.121 0.762-0.598 0.16-0.48 0.093-0.8-0.199-0.961-0.321-0.16-0.575-0.093-0.762 0.2-0.211 0.293-0.227 0.558-0.039 0.8z" inkscape:connector-curvature="0"/>
            </g>
          </g>
        </g>
      </g>
      <g id="g94">
        <g id="g96" clip-path="url(#clipPath98)">
          <g id="g102" transform="matrix(.8 0 0 -.8 -0.012 -2.8003)">
            <g id="g124" mask="url(#mask116)">
              <path id="path132" style="fill-rule:evenodd;fill:url(#radialGradient126)" d="m2.027 5.599h0.563c0.133-0.211 0.172-0.425 0.117-0.64-0.051-0.266-0.199-0.387-0.437-0.36-0.215 0.028-0.336 0.149-0.364 0.36-0.023 0.215 0.016 0.429 0.121 0.64z" inkscape:connector-curvature="0"/>
            </g>
          </g>
        </g>
      </g>
      <g id="g134">
        <g id="g136" clip-path="url(#clipPath138)">
          <g id="g142" transform="matrix(.8 0 0 -.8 -0.012 -5.0403)">
            <g id="g164" mask="url(#mask156)">
              <path id="path172" style="fill-rule:evenodd;fill:url(#radialGradient166)" d="m6.148 4.478 0.2-0.199c0.027-0.266-0.028-0.492-0.16-0.68-0.133-0.214-0.266-0.16-0.399 0.161-0.055 0.132-0.055 0.281 0 0.441 0.078 0.187 0.199 0.277 0.359 0.277z" inkscape:connector-curvature="0"/>
            </g>
          </g>
        </g>
      </g>
      <g id="g174">
        <g id="g176" clip-path="url(#clipPath178)">
          <g id="g182" transform="matrix(.8 0 0 -.8 -0.012 -4.9603)">
            <g id="g204" mask="url(#mask196)">
              <path id="path212" style="fill-rule:evenodd;fill:url(#radialGradient206)" d="m8.906 4.478 1.121 0.364c0-0.11 0.016-0.321 0.039-0.641 0-0.27-0.05-0.453-0.16-0.563-0.027-0.05-0.172-0.078-0.437-0.078-0.266 0-0.426 0.028-0.481 0.078-0.133 0.11-0.187 0.243-0.16 0.403 0.055 0.16 0.078 0.304 0.078 0.437z" inkscape:connector-curvature="0"/>
            </g>
          </g>
        </g>
      </g>
      <path id="path214" style="fill-rule:evenodd;fill:#000000;fill-opacity:.2" d="m0.828 4.439 0.039-0.078-0.078-0.043c-0.055 0.188-0.109 0.309-0.16 0.363h0.039l0.16-0.242z" inkscape:connector-curvature="0"/>
      <path id="path216" style="fill-rule:evenodd;fill:#000000;fill-opacity:.2" d="m8.148 5.92c0 0.347-0.082 0.586-0.242 0.718-0.238 0.137-0.465 0.27-0.679 0.403-0.399 0.293-0.532 0.664-0.399 1.117 0.559 0.055 1.371 0.094 2.442 0.121 0.933 0.082 1.691 0.348 2.277 0.801-0.184-0.293-0.547-0.613-1.078-0.961-0.055-0.027-0.453-0.266-1.199-0.719 0-0.215 0.371-0.375 1.117-0.48 0.242-0.028 0.613-0.078 1.121-0.16 0.426-0.079 0.785-0.094 1.082-0.04 0.398 0.079 0.851 0.266 1.359 0.559 0.531 0.402 0.934 0.695 1.199 0.879l0.399 0.281 0.281-0.078-0.558-0.32c-0.188-0.293-0.442-0.535-0.762-0.723l-0.16-0.117-1.52-0.762c-0.426-0.187-0.922-0.293-1.48-0.32-0.668-0.027-1.188-0.055-1.559-0.078 0.051-0.348 0.574-0.563 1.559-0.641 0.535-0.027 1.175-0.039 1.922-0.039 0.05-0.242-0.043-0.469-0.282-0.68-0.027-0.027-0.242-0.175-0.64-0.441-0.188-0.105-1.028-0.695-2.52-1.762-0.055-0.16-0.172-0.265-0.359-0.32-0.426-0.051-0.723-0.094-0.879-0.117-1.336 0.078-2.309 0.039-2.922-0.121l1.48-0.442c0.079-0.023 0.2-0.023 0.36 0 0.105 0 0.172-0.066 0.199-0.199-0.559-0.371-1.305-0.492-2.238-0.359-0.989 0.132-1.602 0.492-1.84 1.078 0.078 0.027 0.32 0.043 0.719 0.043 0.293-0.028 0.507 0.039 0.64 0.199-0.48-0.027-0.84-0.016-1.082 0.039-0.16 0.055-0.398 0.188-0.718 0.402 0.292-0.16 0.64-0.214 1.039-0.16-0.028 0.239-0.028 0.41 0 0.52 0.027 0.023 0.148 0.172 0.363 0.437 0.344 0.375 0.613 0.668 0.797 0.883 0.32 0.399 0.535 0.731 0.64 1 0-0.242-0.011-0.586-0.039-1.043 0-0.398-0.054-0.746-0.16-1.039 0.668 0.133 1.106 0.254 1.32 0.359 0.375 0.188 0.653 0.508 0.84 0.961 0.106 0.293 0.16 0.735 0.16 1.321z" inkscape:connector-curvature="0"/>
      <path id="path218" style="fill-rule:evenodd;fill:#000000;fill-opacity:.2" d="m2.387 3.201c-0.692 0.371-1.199 0.758-1.52 1.16 0.16 0.078 0.375 0.039 0.641-0.121l1.082-1.082 0.598-0.477-0.801 0.52z" inkscape:connector-curvature="0"/>
      <path id="path220" style="fill-rule:evenodd;fill:#000000;fill-opacity:.2" d="m0.867 4.361c0.321-0.402 0.828-0.789 1.52-1.16l0.801-0.52c0.32-0.214 0.558-0.347 0.718-0.402 0.242-0.051 0.602-0.066 1.082-0.039-0.133-0.16-0.347-0.227-0.64-0.199-0.399 0-0.641-0.016-0.719-0.043 0.238-0.586 0.851-0.946 1.84-1.078 0.933-0.133 1.679-0.012 2.238 0.359-0.027 0.133-0.094 0.199-0.199 0.199-0.16-0.023-0.281-0.023-0.36 0l-1.48 0.442c0.613 0.16 1.586 0.199 2.922 0.121 0.156 0.023 0.453 0.066 0.879 0.117 0.187 0.055 0.304 0.16 0.359 0.32 1.492 1.067 2.332 1.657 2.52 1.762 0.398 0.266 0.613 0.414 0.64 0.441 0.239 0.211 0.332 0.438 0.282 0.68-0.747 0-1.387 0.012-1.922 0.039-0.985 0.078-1.508 0.293-1.559 0.641 0.371 0.023 0.891 0.051 1.559 0.078 0.558 0.027 1.054 0.133 1.48 0.32l1.52 0.762-0.282-0.16c0.403-0.16 0.536-0.602 0.403-1.321-0.106-0.402-0.36-0.734-0.762-1-0.293-0.187-0.547-0.453-0.758-0.8-0.137-0.188-0.32-0.508-0.562-0.961 0.136-0.133 0.386-0.266 0.761-0.399-0.773-0.508-1.613-0.879-2.519-1.121l-0.32-0.121c-0.321 0.481-0.707 0.68-1.161 0.602-0.187-0.028-0.441-0.133-0.761-0.321-0.184-0.105-0.438-0.254-0.758-0.441-0.723-0.371-1.496-0.559-2.32-0.559-0.614 0-0.973-0.093-1.082-0.281-0.852 0.082-1.454 0.188-1.797 0.32-0.27 0.137-0.524 0.52-0.762 1.161l-0.879 2.519 0.078 0.043z" inkscape:connector-curvature="0"/>
      <path id="path222" style="fill-rule:evenodd;fill:#000000;fill-opacity:.2" d="m0.867 4.361c0.321-0.402 0.828-0.789 1.52-1.16l0.801-0.52c0.32-0.214 0.558-0.347 0.718-0.402 0.242-0.051 0.602-0.066 1.082-0.039-0.133-0.16-0.347-0.227-0.64-0.199-0.399 0-0.641-0.016-0.719-0.043 0.238-0.586 0.851-0.946 1.84-1.078 0.933-0.133 1.679-0.012 2.238 0.359-0.027 0.133-0.094 0.199-0.199 0.199-0.16-0.023-0.281-0.023-0.36 0l-1.48 0.442c0.613 0.16 1.586 0.199 2.922 0.121 0.156 0.023 0.453 0.066 0.879 0.117 0.187 0.055 0.304 0.16 0.359 0.32 1.492 1.067 2.332 1.657 2.52 1.762 0.398 0.266 0.613 0.414 0.64 0.441 0.239 0.211 0.332 0.438 0.282 0.68-0.747 0-1.387 0.012-1.922 0.039-0.985 0.078-1.508 0.293-1.559 0.641 0.371 0.023 0.891 0.051 1.559 0.078 0.558 0.027 1.054 0.133 1.48 0.32l1.52 0.762-0.282-0.16c0.403-0.16 0.536-0.602 0.403-1.321-0.106-0.402-0.36-0.734-0.762-1-0.293-0.187-0.547-0.453-0.758-0.8-0.137-0.188-0.32-0.508-0.562-0.961 0.136-0.133 0.386-0.266 0.761-0.399-0.773-0.508-1.613-0.879-2.519-1.121l-0.32-0.121c-0.321 0.481-0.707 0.68-1.161 0.602-0.187-0.028-0.441-0.133-0.761-0.321-0.184-0.105-0.438-0.254-0.758-0.441-0.723-0.371-1.496-0.559-2.32-0.559-0.614 0-0.973-0.093-1.082-0.281-0.852 0.082-1.454 0.188-1.797 0.32-0.27 0.137-0.524 0.52-0.762 1.161l-0.879 2.519 0.078 0.043z" inkscape:connector-curvature="0"/>
      <path id="path224" style="fill-rule:evenodd;fill:#000000;fill-opacity:.2" d="m8.469 0.599c-0.879-0.398-1.774-0.601-2.68-0.601-0.242 0-0.734 0.109-1.48 0.32h-0.082c0.109 0.188 0.468 0.281 1.082 0.281 0.824 0 1.597 0.188 2.32 0.559 0.32 0.187 0.57 0.336 0.758 0.441 0.32 0.188 0.574 0.293 0.761 0.321 0.454 0.078 0.84-0.121 1.161-0.602-0.719-0.183-1.336-0.426-1.84-0.719z" inkscape:connector-curvature="0"/>
      <path id="path226" style="fill-rule:evenodd;fill:#000000;fill-opacity:.2" d="m8.469 0.599c-0.879-0.398-1.774-0.601-2.68-0.601-0.242 0-0.734 0.109-1.48 0.32h-0.082c0.109 0.188 0.468 0.281 1.082 0.281 0.824 0 1.597 0.188 2.32 0.559 0.32 0.187 0.57 0.336 0.758 0.441 0.32 0.188 0.574 0.293 0.761 0.321 0.454 0.078 0.84-0.121 1.161-0.602-0.719-0.183-1.336-0.426-1.84-0.719z" inkscape:connector-curvature="0"/>
      <path id="path228" style="fill-rule:evenodd;fill:#000000;fill-opacity:.2" d="m8.469 0.599c-0.879-0.398-1.774-0.601-2.68-0.601-0.242 0-0.734 0.109-1.48 0.32h-0.082c0.109 0.188 0.468 0.281 1.082 0.281 0.824 0 1.597 0.188 2.32 0.559 0.32 0.187 0.57 0.336 0.758 0.441 0.32 0.188 0.574 0.293 0.761 0.321 0.454 0.078 0.84-0.121 1.161-0.602-0.719-0.183-1.336-0.426-1.84-0.719z" inkscape:connector-curvature="0"/>
      <path id="path230" style="fill-rule:evenodd;fill:#000000;fill-opacity:.2" d="m15.27 7.799c0.21 0.265 0.398 0.425 0.558 0.48l0.039 0.082h0.039c0.082-1.547-0.105-2.547-0.558-3-0.133-0.16-0.321-0.32-0.559-0.48-0.187-0.161-0.309-0.36-0.359-0.602-0.028-0.187-0.055-0.398-0.082-0.641-0.028-0.183-0.149-0.359-0.36-0.519l-0.84-0.559c-0.375 0.133-0.625 0.266-0.761 0.399 0.242 0.453 0.429 0.773 0.562 0.961 0.211 0.347 0.465 0.613 0.758 0.8 0.402 0.266 0.652 0.598 0.762 1 0.133 0.719 0 1.161-0.403 1.321l0.282 0.16 0.16 0.117 0.762 0.481z" inkscape:connector-curvature="0"/>
      <path id="path232" style="fill-rule:evenodd;fill:#000000;fill-opacity:.2" d="m15.27 7.799c0.21 0.265 0.398 0.425 0.558 0.48l0.039 0.082h0.039c0.082-1.547-0.105-2.547-0.558-3-0.133-0.16-0.321-0.32-0.559-0.48-0.187-0.161-0.309-0.36-0.359-0.602-0.028-0.187-0.055-0.398-0.082-0.641-0.028-0.183-0.149-0.359-0.36-0.519l-0.84-0.559c-0.375 0.133-0.625 0.266-0.761 0.399 0.242 0.453 0.429 0.773 0.562 0.961 0.211 0.347 0.465 0.613 0.758 0.8 0.402 0.266 0.652 0.598 0.762 1 0.133 0.719 0 1.161-0.403 1.321l0.282 0.16 0.16 0.117 0.762 0.481z" inkscape:connector-curvature="0"/>
      <path id="path234" style="fill-rule:evenodd;fill:#000000;fill-opacity:.2" d="m15.27 7.799c0.21 0.265 0.398 0.425 0.558 0.48l0.039 0.082h0.039c0.082-1.547-0.105-2.547-0.558-3-0.133-0.16-0.321-0.32-0.559-0.48-0.187-0.161-0.309-0.36-0.359-0.602-0.028-0.187-0.055-0.398-0.082-0.641-0.028-0.183-0.149-0.359-0.36-0.519l-0.84-0.559c-0.375 0.133-0.625 0.266-0.761 0.399 0.242 0.453 0.429 0.773 0.562 0.961 0.211 0.347 0.465 0.613 0.758 0.8 0.402 0.266 0.652 0.598 0.762 1 0.133 0.719 0 1.161-0.403 1.321l0.282 0.16 0.16 0.117 0.762 0.481z" inkscape:connector-curvature="0"/>
      <path id="path236" style="fill-rule:evenodd;fill:#ffffff;fill-opacity:.2" d="m4.27 9.201c0.343-0.082 0.863-0.094 1.558-0.043 0.695 0.055 1.199 0.055 1.52 0-1.254-0.449-2.52-0.586-3.801-0.398-0.774 0.054-1.266 0.066-1.481 0.039-0.05-0.106-0.105-0.293-0.16-0.559-0.051-0.215-0.16-0.398-0.316-0.559-0.137-0.136-0.363-0.308-0.684-0.523-0.211-0.211-0.277-0.465-0.199-0.758 0.188 0 0.453-0.055 0.801-0.16 0.347-0.133 0.601-0.199 0.762-0.199 0.21-0.028 0.531 0 0.957 0.078 0.429 0.055 0.75 0.066 0.961 0.039-0.376-0.16-0.641-0.266-0.801-0.316-0.266-0.137-0.465-0.321-0.598-0.563-0.133-0.293-0.199-0.652-0.199-1.078-0.27-0.082-0.59 0.051-0.961 0.398-0.32 0.293-0.629 0.332-0.922 0.121l-0.039-0.039c-0.078 0.161-0.133 0.36-0.16 0.598-0.028 0.375-0.039 0.586-0.039 0.641-0.133-0.133-0.199-0.36-0.199-0.68-0.243 0.398-0.309 0.84-0.204 1.32 0.082 0.453 0.282 0.852 0.602 1.2-0.238 0.32-0.32 1.039-0.238 2.16 0.398-0.239 0.945-0.414 1.636-0.52h1c0.297 0 0.696-0.066 1.204-0.199z" inkscape:connector-curvature="0"/>
      <path id="path238" style="fill-rule:evenodd;fill:#000000;fill-opacity:.2" d="m0.27 5.24c0 0.32 0.066 0.547 0.199 0.68 0-0.055 0.011-0.266 0.039-0.641 0.027-0.238 0.082-0.437 0.16-0.598h-0.039l-0.32 0.477-0.039 0.082z" inkscape:connector-curvature="0"/>
      <path id="path240" style="fill-rule:evenodd;fill:#ffffff;fill-opacity:.2" d="m0.27 5.24c0 0.32 0.066 0.547 0.199 0.68 0-0.055 0.011-0.266 0.039-0.641 0.027-0.238 0.082-0.437 0.16-0.598h-0.039l-0.32 0.477-0.039 0.082z" inkscape:connector-curvature="0"/>
    </g>
  </g>
<metadata><rdf:RDF><cc:Work><dc:format>image/svg+xml</dc:format><dc:type rdf:resource="http://purl.org/dc/dcmitype/StillImage"/><cc:license rdf:resource="http://creativecommons.org/licenses/publicdomain/"/><dc:publisher><cc:Agent rdf:about="http://openclipart.org/"><dc:title>Openclipart</dc:title></cc:Agent></dc:publisher></cc:Work><cc:License rdf:about="http://creativecommons.org/licenses/publicdomain/"><cc:permits rdf:resource="http://creativecommons.org/ns#Reproduction"/><cc:permits rdf:resource="http://creativecommons.org/ns#Distribution"/><cc:permits rdf:resource="http://creativecommons.org/ns#DerivativeWorks"/></cc:License></rdf:RDF></metadata></svg>
