<?xml version="1.0" encoding="UTF-8" standalone="no"?>
<svg
   xmlns:dc="http://purl.org/dc/elements/1.1/"
   xmlns:cc="http://creativecommons.org/ns#"
   xmlns:rdf="http://www.w3.org/1999/02/22-rdf-syntax-ns#"
   xmlns:svg="http://www.w3.org/2000/svg"
   xmlns="http://www.w3.org/2000/svg"
   xmlns:xlink="http://www.w3.org/1999/xlink"
   width="793.70081"
   height="1122.5197"
   viewBox="0 0 210 297"
   version="1.1"
   id="svg8">
  <title
     id="title4577">Scroll 2</title>
  <defs
     id="defs2">
    <linearGradient
       id="linearGradient5153">
      <stop
         id="stop5123"
         offset="0"
         stop-color="#d6c772" />
      <stop
         id="stop5125"
         offset="0.071429"
         stop-color="#d2c16a" />
      <stop
         id="stop5127"
         offset="0.142857"
         stop-color="#d0be66" />
      <stop
         id="stop5129"
         offset="0.214286"
         stop-color="#d2c16a" />
      <stop
         id="stop5131"
         offset="0.31128839"
         stop-color="#d6c772" />
      <stop
         id="stop5133"
         offset="0.39752895"
         stop-color="#d6c772" />
      <stop
         id="stop5135"
         offset="0.46798772"
         stop-color="#cfbb62" />
      <stop
         id="stop5137"
         offset="0.54491931"
         stop-color="#cfbb62" />
      <stop
         id="stop5139"
         offset="0.571429"
         stop-color="#ccb961" />
      <stop
         id="stop5141"
         offset="0.642857"
         stop-color="#cfbb62" />
      <stop
         id="stop5143"
         offset="0.714286"
         stop-color="#cfbb62" />
      <stop
         id="stop5145"
         offset="0.80028325"
         stop-color="#bcac5b" />
      <stop
         id="stop5147"
         offset="0.857143"
         stop-color="#cfbb62" />
      <stop
         id="stop5149"
         offset="0.93334669"
         stop-color="#bcac5b" />
      <stop
         id="stop5151"
         offset="1"
         stop-color="#bcac5b" />
    </linearGradient>
    <linearGradient
       id="linearGradient5052">
      <stop
         stop-color="#d6c772"
         offset="0"
         id="stop5022" />
      <stop
         stop-color="#d2c16a"
         offset="0.071429"
         id="stop5024" />
      <stop
         stop-color="#d0be66"
         offset="0.142857"
         id="stop5026" />
      <stop
         stop-color="#d2c16a"
         offset="0.214286"
         id="stop5028" />
      <stop
         stop-color="#d6c772"
         offset="0.285714"
         id="stop5030" />
      <stop
         stop-color="#d6c772"
         offset="0.357143"
         id="stop5032" />
      <stop
         stop-color="#cfbb62"
         offset="0.428571"
         id="stop5034" />
      <stop
         stop-color="#cfbb62"
         offset="0.5"
         id="stop5036" />
      <stop
         stop-color="#ccb961"
         offset="0.571429"
         id="stop5038" />
      <stop
         stop-color="#cfbb62"
         offset="0.642857"
         id="stop5040" />
      <stop
         stop-color="#cfbb62"
         offset="0.714286"
         id="stop5042" />
      <stop
         stop-color="#bcac5b"
         offset="0.785714"
         id="stop5044" />
      <stop
         stop-color="#cfbb62"
         offset="0.857143"
         id="stop5046" />
      <stop
         stop-color="#bcac5b"
         offset="0.928571"
         id="stop5048" />
      <stop
         stop-color="#bcac5b"
         offset="1"
         id="stop5050" />
    </linearGradient>
    <linearGradient
       gradientUnits="userSpaceOnUse"
       y2="289.57578"
       x2="83.187134"
       y1="8.518115"
       x1="86.485641"
       id="linearGradient5084"
       xlink:href="#linearGradient5052" />
    <filter
       id="filter5094"
       style="color-interpolation-filters:sRGB;">
      <feTurbulence
         id="feTurbulence5086"
         baseFrequency="0.08"
         type="fractalNoise"
         seed="0"
         numOctaves="5" />
      <feGaussianBlur
         id="feGaussianBlur5088"
         result="result91"
         stdDeviation="0.5" />
      <feDisplacementMap
         id="feDisplacementMap5090"
         in2="result91"
         result="result1"
         in="SourceGraphic"
         xChannelSelector="R"
         yChannelSelector="G"
         scale="20" />
      <feComposite
         id="feComposite5092"
         operator="atop"
         in2="SourceGraphic"
         in="result1" />
    </filter>
    <linearGradient
       gradientUnits="userSpaceOnUse"
       y2="29.829071"
       x2="100.5743"
       y1="9.9506454"
       x1="99.614441"
       id="linearGradient5102"
       xlink:href="#linearGradient5153" />
    <filter
       id="filter5163"
       style="color-interpolation-filters:sRGB;">
      <feTurbulence
         id="feTurbulence5155"
         baseFrequency="0.0080000000000000002 0.035000000000000003"
         type="fractalNoise"
         seed="0"
         numOctaves="5" />
      <feGaussianBlur
         id="feGaussianBlur5157"
         result="result91"
         stdDeviation="0.5" />
      <feDisplacementMap
         id="feDisplacementMap5159"
         in2="result91"
         result="result1"
         in="SourceGraphic"
         xChannelSelector="R"
         yChannelSelector="G"
         scale="10" />
      <feComposite
         id="feComposite5161"
         operator="atop"
         in2="SourceGraphic"
         in="result1" />
    </filter>
  </defs>
  <metadata
     id="metadata5">
    <rdf:RDF>
      <cc:Work
         rdf:about="">
        <dc:format>image/svg+xml</dc:format>
        <dc:type
           rdf:resource="http://purl.org/dc/dcmitype/StillImage" />
        <dc:title>Scroll 2</dc:title>
        <dc:creator>
          <cc:Agent>
            <dc:title />
          </cc:Agent>
        </dc:creator>
        <dc:publisher>
          <cc:Agent>
            <dc:title>Openclipart.org</dc:title>
          </cc:Agent>
        </dc:publisher>
        <dc:identifier>https://openclipart.org/</dc:identifier>
        <dc:source />
        <dc:subject>
          <rdf:Bag>
            <rdf:li>border</rdf:li>
            <rdf:li>frame</rdf:li>
            <rdf:li>parchment</rdf:li>
            <rdf:li>scroll</rdf:li>
          </rdf:Bag>
        </dc:subject>
        <dc:description>scroll</dc:description>
        <cc:license
           rdf:resource="http://creativecommons.org/publicdomain/zero/1.0/" />
      </cc:Work>
      <cc:License
         rdf:about="http://creativecommons.org/publicdomain/zero/1.0/">
        <cc:permits
           rdf:resource="http://creativecommons.org/ns#Reproduction" />
        <cc:permits
           rdf:resource="http://creativecommons.org/ns#Distribution" />
        <cc:permits
           rdf:resource="http://creativecommons.org/ns#DerivativeWorks" />
      </cc:License>
    </rdf:RDF>
  </metadata>
  <path
     id="path4496"
     d="m 25.544465,292.59441 c -1.780858,-0.0987 -6.057347,-0.16275 -9.50332,-0.14232 -3.445972,0.0205 -6.2213085,-0.0341 -6.1674205,-0.12133 0.053895,-0.0872 -0.4419855,-0.30297 -1.1019386,-0.47947 -0.6599604,-0.1765 -1.9863133,-0.9039 -2.9474633,-1.61642 -1.8768927,-1.3914 -3.1647553,-3.07287 -3.6418535,-4.7549 -0.1635656,-0.57666 -0.3801968,-1.14508 -0.4814083,-1.2632 -0.1922756,-0.22438 -0.066231,-3.98318 0.1703869,-5.08193 0.108077,-0.50183 0.1860563,-0.55586 0.3738307,-0.25903 0.1807916,0.28577 0.2382114,0.22142 0.2412365,-0.2703 0.00587,-0.91426 1.6136135,-3.13566 2.9801677,-4.11706 2.2388209,-1.60779 3.8090684,-1.93977 9.2569794,-1.95707 4.850452,-0.0156 4.850761,-0.0156 5.514444,-0.67888 l 0.66372,-0.66343 -0.274161,-2.96304 c -0.15079,-1.62966 -0.386813,-6.16854 -0.524496,-10.08642 -0.137682,-3.91789 -0.304809,-8.40564 -0.371378,-9.9728 -0.0666,-1.56715 -0.19099,-4.59784 -0.276474,-6.73487 -0.254101,-6.35247 -0.341751,-8.47785 -0.635612,-15.4125 -0.153947,-3.63294 -0.332374,-9.28635 -0.396505,-12.56313 -0.0641,-3.27677 -0.173434,-6.89029 -0.242911,-8.03003 -0.151024,-2.47771 -0.419282,-10.89403 -0.553161,-17.35525 -0.05316,-2.56443 -0.219986,-6.64421 -0.370783,-9.06618 -0.15079,-2.42196 -0.258272,-5.16124 -0.238843,-6.08729 0.01946,-0.92604 -0.03613,-3.31562 -0.12346,-5.31018 -0.08733,-1.99456 -0.229642,-10.56209 -0.316249,-19.03897 -0.08661,-8.47687 -0.199031,-16.69471 -0.24982,-18.26186 -0.207938,-6.41561 -0.287165,-13.34279 -0.124429,-10.87941 0.09412,1.42468 0.192679,-3.56676 0.219032,-11.0921 0.02636,-7.52535 0.103943,-13.773109 0.172428,-13.883917 0.06851,-0.110816 0.183641,-10.447667 0.255893,-22.970801 0.177413,-30.747152 0.390219,-45.004587 0.69892,-46.82586 0.527565,-3.1125 2.031618,-5.45955 4.518908,-7.051695 1.848895,-1.183493 3.577774,-1.617975 8.712336,-2.189472 2.462443,-0.274079 4.885139,-0.549345 5.383781,-0.611701 1.947419,-0.243531 4.314715,-0.437932 5.150995,-0.423 0.482311,0.0086 1.030406,-0.111708 1.217975,-0.267379 0.187576,-0.155671 0.580028,-0.207187 0.87212,-0.114481 0.292092,0.09271 1.434195,0.02631 2.538006,-0.14755 1.103811,-0.173859 2.295734,-0.297471 2.648718,-0.274694 0.352993,0.02278 1.751774,-0.137274 3.108408,-0.355668 1.356634,-0.218395 2.816301,-0.45008 3.243711,-0.514856 1.420273,-0.215251 5.434621,-0.637144 7.393165,-0.776993 1.062626,-0.07588 3.097695,-0.247958 4.522373,-0.382404 1.424687,-0.134445 3.406293,-0.309555 4.403577,-0.389132 0.997275,-0.07958 3.503429,-0.320021 5.569219,-0.534318 3.562722,-0.369585 14.226237,-1.2422254 24.996731,-2.0455899 0.99728,-0.074387 3.32858,-0.2539474 5.18067,-0.3990249 2.9193,-0.2286732 10.7678,-0.7707637 16.57816,-1.1450415 0.99727,-0.064241 3.79483,-0.1863632 6.2168,-0.2713827 2.42197,-0.08502 8.19193,-0.3274829 12.82217,-0.5388057 4.63021,-0.2113232 10.10877,-0.4333953 12.17457,-0.493493 2.06579,-0.0601 5.50446,-0.2362119 7.64148,-0.3913643 4.17333,-0.3029921 18.55524,-0.7780542 29.58283,-0.9771768 6.43202,-0.1161422 6.87551,-0.093402 8.45967,0.4337712 2.19634,0.7308959 4.24223,2.2264834 5.70179,4.1681195 1.16569,1.5507051 1.84831,3.1911951 1.5373,3.6944261 -0.0877,0.141835 0.0428,0.405726 0.28993,0.586427 0.3753,0.27442 0.43105,0.641338 0.33841,2.227246 -0.061,1.044286 -0.31129,2.58426 -0.55621,3.422164 -0.57979,1.983521 -3.20334,5.567082 -3.80395,5.195888 -0.13929,-0.08609 -0.6953,0.298971 -1.23559,0.85569 -0.93491,0.963363 -1.11669,1.034269 -3.76635,1.469087 -1.53121,0.251278 -2.8517,0.389186 -2.93443,0.306463 -0.0827,-0.08272 -0.32352,-0.0068 -0.53512,0.168888 -0.27058,0.224556 -1.66109,0.319962 -4.68644,0.321545 l -4.30171,0.0023 -0.19178,9.843275 c -0.10547,5.413801 -0.136,11.650033 -0.0678,13.858294 0.33126,10.731827 0.38277,16.631736 0.18658,21.370267 -0.11797,2.849369 -0.12538,5.3035 -0.0164,5.45362 0.10892,0.150123 0.18513,3.530511 0.16935,7.511973 -0.0158,3.981462 0.0495,7.483628 0.145,7.7826 0.0984,0.307959 0.009,0.861311 -0.20661,1.276591 -0.20916,0.403158 -0.3222,0.827007 -0.25121,0.941891 0.071,0.114876 0.25899,1.755143 0.41775,3.64504 0.26668,3.174704 0.27662,8.059864 0.0505,24.806434 -0.0564,4.17638 -0.002,6.1249 0.1591,5.69873 0.16409,-0.43407 0.19515,0.3346 0.0942,2.33131 -0.0828,1.63838 -0.11105,3.44514 -0.0628,4.01502 0.0962,1.13468 0.10175,4.49601 0.0181,10.8794 -0.0299,2.2795 0.002,9.33169 0.0717,15.67154 0.30008,27.44933 0.31707,33.82443 0.0913,34.25718 -0.14426,0.27647 -0.14247,0.45331 0.004,0.45331 0.14376,0 0.30083,5.3608 0.38896,13.27547 0.0813,7.30151 0.21391,15.08223 0.29467,17.29049 0.0808,2.20826 0.14522,4.42299 0.14322,4.92164 -0.002,0.49864 -0.035,12.27171 -0.0733,26.16238 l -0.0698,25.25577 -0.61946,1.16565 c -0.73749,1.38775 -4.28938,5.12939 -5.20879,5.48706 -1.25898,0.48975 -14.98849,0.6 -56.08076,0.45025 -11.44891,-0.0417 -18.8278,0.18808 -18.21672,0.56731 0.34084,0.21155 -7.15233,0.37886 -9.888424,0.22082 -0.783582,-0.0453 -1.890947,-0.0722 -2.46082,-0.0598 -3.435884,0.0747 -4.016881,0.11595 -3.918291,0.27805 0.06014,0.0989 -1.65637,0.19664 -3.814443,0.21731 -2.158073,0.0207 -8.702945,0.10913 -14.544145,0.19657 -17.4695,0.2615 -44.068202,0.34978 -47.532656,0.15773 z m 41.704401,-1.02401 c 1.834151,-0.38402 4.84026,-0.39951 5.800059,-0.0299 0.43653,0.16812 1.516977,0.23246 2.590337,0.15426 1.012784,-0.0738 5.046972,-0.19941 8.964851,-0.27917 3.91788,-0.0797 7.473119,-0.18569 7.900522,-0.23548 0.427403,-0.0498 3.807791,-0.17153 7.511965,-0.27061 3.70419,-0.0991 7.25942,-0.22756 7.90053,-0.28559 0.64111,-0.058 2.99204,-0.1319 5.22431,-0.16422 2.23225,-0.0323 4.01448,-0.13022 3.96051,-0.21754 -0.054,-0.0874 1.2669,-0.15079 2.93526,-0.14102 1.66837,0.01 4.95671,-0.003 7.30744,-0.027 2.35074,-0.0246 5.55627,-0.0246 7.12343,2e-5 1.56715,0.0246 3.78188,0.007 4.92163,-0.0386 1.13975,-0.0458 2.53853,-0.0197 3.10841,0.0583 1.37672,0.18824 20.27482,0.28696 22.34659,0.11675 0.89315,-0.0734 1.69939,-0.20891 1.79165,-0.30116 0.23231,-0.23232 1.11747,-0.21131 1.1178,0.0265 1.4e-4,0.10685 2.53543,0.18969 5.63397,0.18407 5.51749,-0.0101 5.67011,-0.0249 7.39803,-0.71608 1.78828,-0.71547 4.70544,-2.86097 5.29053,-3.89104 0.17598,-0.30986 0.32169,-0.94908 0.32379,-1.42049 0.002,-0.47144 0.1056,-0.79424 0.23,-0.71737 0.28558,0.17651 0.27504,0.57693 0.41854,-15.91025 0.0664,-7.62206 0.0181,-15.72333 -0.10718,-18.00283 -0.12528,-2.2795 -0.17705,-4.22708 -0.11504,-4.32797 0.23429,-0.3812 0.2965,-26.36676 0.0712,-29.7221 -0.47041,-7.00429 -0.74604,-18.50728 -0.44789,-18.69155 0.26159,-0.16167 0.22579,-4.19849 -0.38918,-43.87789 -0.011,-0.71234 0.0115,-6.59889 0.0502,-13.0812 0.0386,-6.48231 0.0114,-14.46702 -0.0604,-17.7438 -0.0719,-3.27677 -0.13063,-14.17561 -0.13055,-24.219627 8e-5,-10.04402 -0.008,-18.494992 -0.0183,-18.779929 -0.0101,-0.284937 -0.0886,-11.999729 -0.17428,-26.032871 -0.0857,-14.033142 -0.20357,-25.565305 -0.2619,-25.627028 -0.0584,-0.06172 -3.28053,-0.09082 -7.16044,-0.06465 -6.57839,0.04436 -10.02937,0.166843 -22.98493,0.815772 -2.77814,0.139152 -8.37326,0.320854 -12.43361,0.403776 -4.06035,0.08292 -9.53891,0.265121 -12.17457,0.404882 -2.63567,0.139762 -8.46393,0.363249 -12.95168,0.496635 -4.48775,0.133389 -9.79148,0.357301 -11.78604,0.497586 -1.99455,0.140285 -5.60807,0.379935 -8.030035,0.532557 -2.421962,0.152623 -5.744071,0.391486 -7.382459,0.53081 -1.63838,0.13932 -4.377656,0.314948 -6.087283,0.39028 -1.709619,0.07533 -4.682033,0.307172 -6.605353,0.515199 -1.923328,0.20803 -5.595125,0.49758 -8.159557,0.64345 -2.564432,0.145867 -5.012299,0.317775 -5.439702,0.382015 -0.42741,0.06424 -2.234166,0.185737 -4.015024,0.269993 -1.780857,0.08426 -3.797342,0.262782 -4.481078,0.39672 -0.683736,0.133939 -1.938065,0.243523 -2.7874,0.243523 -0.849328,0 -2.621213,0.170613 -3.937514,0.37914 -1.316294,0.208524 -3.092658,0.445511 -3.947471,0.526635 -0.854806,0.08113 -2.661568,0.254248 -4.015016,0.384717 -1.353455,0.130473 -3.62647,0.303598 -5.051157,0.384727 -3.379323,0.192436 -5.238042,0.359344 -7.771004,0.697813 -2.523416,0.337197 -3.895661,0.03778 -5.031229,-1.097789 -1.190432,-1.190435 -1.451957,-2.525217 -0.903759,-4.612704 0.566451,-2.157014 0.786915,-2.60852 1.629422,-3.337054 1.577715,-1.364285 3.41097,-1.802838 7.932037,-1.897505 2.645517,-0.05539 3.666884,-0.32342 3.888061,-1.020298 0.257632,-0.811729 -1.388245,-4.397802 -2.241061,-4.882861 -0.405411,-0.230587 -0.737844,-0.501074 -0.738747,-0.601082 -7.34e-4,-0.100006 -0.497041,-0.515505 -1.102533,-0.92333 -2.705155,-1.822039 -6.280572,-1.490271 -9.437441,0.875715 -0.453514,0.339898 -0.919774,0.623047 -1.036134,0.629219 -0.282891,0.01501 -2.027307,2.723802 -2.528027,3.925625 -0.573339,1.376116 -0.619671,2.736507 -0.792334,23.261675 -0.0857,10.186546 -0.230884,23.183554 -0.32263,28.882292 -0.09175,5.698738 -0.184794,14.790817 -0.206763,20.204607 -0.02195,5.413805 -0.100132,15.380115 -0.173699,22.147365 -0.212115,19.51246 0.289919,49.66406 0.946546,56.84861 0.07859,0.8599 0.26043,6.34263 0.40409,12.18383 0.143659,5.84121 0.318746,11.73143 0.389081,13.0894 0.07034,1.35796 0.131794,4.50522 0.136567,6.9939 0.0044,2.48869 0.115265,5.74883 0.245546,7.24474 0.130289,1.49592 0.307145,5.63398 0.393025,9.19569 0.08588,3.56171 0.262163,7.99119 0.391739,9.84327 0.40155,5.73945 1.259704,32.40407 1.121272,34.84002 -0.04457,0.78357 0.0051,1.22445 0.110566,0.97969 0.105338,-0.24473 0.192885,0.68779 0.194545,2.07226 0.0015,1.38452 0.118224,4.14918 0.259035,6.14374 0.371863,5.26752 0.302474,6.986 -0.362663,8.9818 -0.316888,0.95089 -0.744445,1.86855 -0.950121,2.03925 -0.205676,0.17067 -0.373955,0.43261 -0.373955,0.58202 0,0.44331 -0.823277,1.21909 -1.293737,1.21909 -0.369675,0 -1.204964,1.21916 -0.98251,1.43403 0.574132,0.55457 46.813338,0.68147 49.42035,0.13564 z m -51.871029,-0.19962 c 1.313569,-0.41406 3.431757,-2.11907 3.431757,-2.76236 0,-0.1276 0.262273,-0.49667 0.582826,-0.82012 1.183853,-1.19464 1.343527,-1.54216 1.445679,-3.14633 l 0.104119,-1.63515 -3.203341,-0.061 c -1.761833,-0.0336 -3.93758,-0.0305 -4.834996,0.007 -1.567105,0.0651 -1.620545,0.047 -1.350811,-0.45704 0.208796,-0.39015 0.541625,-0.52477 1.297386,-0.52477 1.786812,0 3.06159,-2.09446 2.782399,-4.57147 -0.262265,-2.32683 -1.866994,-3.53931 -4.723783,-3.56915 -1.8273808,-0.0192 -2.0937219,0.0701 -5.0704311,1.6968 -0.8884427,0.4855 -2.1019607,1.90299 -2.8555109,3.33542 -0.5024231,0.95508 -0.6140099,1.55951 -0.6176812,3.34586 -0.00294,1.51724 0.093972,2.213 0.3193039,2.28812 0.1780895,0.0594 0.3237977,0.35029 0.3237977,0.6465 0,0.70933 1.2779573,2.67542 2.5118659,3.86447 2.4824585,2.39212 6.6197377,3.38414 9.8574207,2.36355 z m 149.197483,-0.49043 c -0.0861,-0.0861 -0.30949,-0.0953 -0.49648,-0.0205 -0.20664,0.0827 -0.14526,0.14407 0.1565,0.15651 0.27307,0.0112 0.42606,-0.05 0.33998,-0.13607 z M 20.434993,282.2519 c 0.595308,-0.22635 0.607071,-0.29693 0.571738,-3.42932 -0.01983,-1.75902 -0.05602,-3.63533 -0.08048,-4.16959 l -0.04442,-0.97138 H 17.77343 c -1.96264,0 -3.108407,0.0985 -3.108407,0.26718 0,0.14691 0.16999,0.33238 0.377751,0.41212 0.584823,0.2244 1.694523,2.30177 1.694523,3.17215 0,0.42916 -0.291417,1.58815 -0.647588,2.57554 -0.356172,0.98738 -0.647581,1.86155 -0.647581,1.94254 0,0.32255 4.225627,0.49245 4.992834,0.20076 z m 166.917957,-2.9363 c -0.0719,-0.17809 -0.13065,-0.0324 -0.13065,0.32379 0,0.35617 0.0588,0.50188 0.13065,0.32379 0.0719,-0.17808 0.0719,-0.4695 0,-0.64758 z M 27.746249,35.14269 c 0.854814,-0.09293 1.729048,-0.283619 1.942757,-0.423753 0.213701,-0.140135 0.785131,-0.371892 1.269844,-0.515018 0.714333,-0.210928 1.217945,-0.750729 2.658337,-2.849369 1.914723,-2.789725 2.432272,-4.038508 2.004773,-4.837285 -0.242037,-0.452255 -0.520067,-0.48102 -3.567039,-0.369051 -5.506234,0.202343 -7.838388,1.440131 -8.982209,4.767302 -0.260996,0.759181 -0.251663,1.120631 0.0511,1.978742 0.506645,1.435989 1.866136,2.817164 2.549314,2.589968 0.28541,-0.09492 1.218312,-0.248605 2.073126,-0.341536 z m 7.900522,-0.117498 c 0.785403,-0.280971 4.094868,-0.674287 6.993906,-0.8312 1.638388,-0.08868 3.794846,-0.27966 4.792122,-0.424405 0.997283,-0.144745 2.104648,-0.301573 2.460819,-0.348504 0.356172,-0.04693 1.549395,-0.224284 2.651605,-0.394117 1.10221,-0.169833 2.238792,-0.24739 2.525736,-0.172353 0.286945,0.07504 1.366745,0.03705 2.399553,-0.08441 4.205933,-0.49463 11.099266,-1.038233 18.196946,-1.434997 4.131581,-0.23096 7.606815,-0.477992 7.722726,-0.548962 0.115919,-0.07097 2.155812,-0.227167 4.533094,-0.347102 2.377275,-0.119938 5.954233,-0.342717 7.948793,-0.495067 5.828409,-0.445192 21.216639,-1.299108 28.234669,-1.566789 3.5617,-0.13585 7.81633,-0.325242 9.45471,-0.420872 1.63839,-0.09563 5.3102,-0.199736 8.15956,-0.231343 7.0737,-0.07847 14.30173,-0.295942 20.33414,-0.611808 2.77813,-0.145467 10.82112,-0.385861 17.87331,-0.534209 12.51124,-0.263184 15.48252,-0.395057 18.84469,-0.836379 0.17809,-0.02337 0.32379,-0.139639 0.32379,-0.258363 0,-0.118723 0.0874,-0.196241 0.19428,-0.172261 0.56444,0.126674 2.29969,-0.446121 2.64559,-0.873297 0.2193,-0.270821 0.57342,-0.522586 0.78694,-0.559478 0.75736,-0.130861 3.25603,-2.904589 3.8919,-4.320326 0.52921,-1.178292 0.63553,-1.824017 0.63794,-3.87474 0.003,-2.345279 -0.0496,-2.578296 -1.11588,-4.962894 l -1.11879,-2.5020755 -2.11913,-1.0950408 c -2.96805,-1.5337093 -5.18363,-2.3224787 -6.46386,-2.3011923 -0.84927,0.01412 -0.97873,0.068162 -0.5769,0.2408276 0.62846,0.270058 0.85982,0.2600389 -8.72497,0.3778354 -3.94392,0.048469 -7.31318,0.1761444 -7.48724,0.2837191 -0.21336,0.1318606 -0.24971,0.087569 -0.11158,-0.1359315 0.15973,-0.2584521 -0.017,-0.2909479 -0.80183,-0.1474337 -0.55371,0.1012497 -3.14944,0.2284089 -5.76829,0.2825758 -6.80082,0.140666 -12.2851,0.3547442 -16.60871,0.6483197 -6.46821,0.4391953 -19.99716,1.0209172 -20.24082,0.8703217 -0.12805,-0.079133 -2.12474,0.053396 -4.43711,0.294504 -2.31237,0.2411095 -5.97599,0.4533652 -8.14138,0.4716778 -2.1654,0.018313 -3.73902,0.1172502 -3.49696,0.2198591 0.24207,0.1026088 -0.30581,0.114725 -1.21751,0.026926 -1.04203,-0.1003517 -1.60013,-0.066605 -1.5028,0.090869 0.0955,0.1545091 -0.95679,0.2705543 -2.74595,0.3028218 -1.59541,0.028776 -3.07561,0.1017218 -3.28931,0.1621073 -0.90503,0.255731 -6.71326,0.6587158 -11.486682,0.7969661 -2.827198,0.081883 -5.401308,0.2480902 -5.720244,0.3693495 -0.318937,0.1212599 -1.386167,0.2219879 -2.371614,0.2238409 -0.985454,0.0018 -2.316271,0.06932 -2.957383,0.149917 -1.707849,0.214716 -3.078978,0.344737 -7.123416,0.675497 -1.994559,0.163118 -3.801322,0.363256 -4.015023,0.444752 -0.484441,0.184742 -1.0837,0.24605 -5.439703,0.556527 -5.703561,0.406524 -7.569124,0.571148 -8.936655,0.788606 -0.712343,0.113274 -1.93628,0.228779 -2.719855,0.256681 -0.783574,0.0279 -2.240642,0.162503 -3.237918,0.299114 -0.997283,0.136611 -2.920603,0.360008 -4.274058,0.49644 -1.353448,0.136431 -2.868794,0.310659 -3.367436,0.387174 -0.498634,0.07651 -2.514406,0.250344 -4.479485,0.386288 -1.965078,0.135944 -3.713554,0.338307 -3.885505,0.449696 -0.532279,0.344815 -3.589603,0.8083 -5.493304,0.832777 -2.075057,0.02668 -3.755981,0.261299 -3.755981,0.52425 0,0.205707 0.486996,0.683647 1.894625,1.859393 1.394912,1.165124 2.150121,2.81614 2.459777,5.377529 0.328916,2.720669 -0.155584,5.421882 -1.323306,7.377785 -0.435832,0.730006 -0.955011,1.598551 -1.153726,1.930096 -0.198722,0.331547 -0.781643,0.850816 -1.295389,1.153934 l -0.934085,0.551123 0.661011,0.270752 c 0.672193,0.275327 2.611454,0.307297 3.317556,0.0547 z M 186.46439,52.985044 c 0,-0.498639 0.0533,-0.702628 0.11847,-0.453309 0.0651,0.249321 0.0651,0.657298 0,0.906618 -0.0651,0.24932 -0.11847,0.04533 -0.11847,-0.453309 z"
     style="fill:#411000;stroke-width:0.13229167;stroke-miterlimit:4;stroke-dasharray:none;stroke:#411000;stroke-opacity:1" />
  <path
     id="path4502"
     d="M 195.07174,5.0195304 C 167.59381,5.8670512 140.09309,6.8107898 112.66958,8.6806201 96.354117,9.6569838 80.042914,10.950852 63.779693,12.685693 c -10.473929,1.200795 -21.157999,1.773603 -31.45244,3.848327 1.387187,2.354077 4.19525,4.154816 3.706269,7.320978 0.792775,3.982636 -1.018825,7.865044 -3.731204,10.605026 0.798112,1.171939 3.253031,0.132695 4.51783,0.34239 3.873464,-0.662144 8.224156,0.01609 11.880642,-0.937574 3.676468,-1.23399 7.928867,-0.653491 11.683614,-0.991974 5.515129,-1.281713 11.760221,-1.066563 17.549813,-1.331305 4.043228,0.09372 7.744804,-1.311174 11.871167,-1.117733 3.130117,-0.264407 6.6378,-0.11571 9.588001,-0.0043 -0.650828,-1.433736 2.228495,-0.585899 2.908705,-0.812009 5.19603,0.467138 10.12191,-1.013761 15.38092,-0.850945 25.9122,-1.251264 51.87772,-1.321113 77.77359,-2.82749 4.64646,-0.05223 9.42889,-2.142514 11.24888,-6.691219 1.41131,-3.486791 -0.1771,-7.113846 -0.92476,-10.4802346 0.86758,-1.5667869 -1.69516,-0.5961876 -2.41217,-1.484167 -2.64547,-1.0978048 -5.31239,-2.6788393 -8.29681,-2.2538956 z"
     style="opacity:1;fill:#d3b292;fill-opacity:1;fill-rule:evenodd;stroke:none;stroke-width:0.26458332;stroke-miterlimit:4;stroke-dasharray:none;stroke-opacity:1" />
  <path
     id="path4506"
     d="m 11.402559,273.76216 c -5.9298537,-0.16337 -11.38810976,6.64924 -8.1190104,12.17796 2.0719894,4.79908 8.0723664,6.71464 12.7926724,5.11707 2.359975,-1.90813 5.379576,-4.5098 4.60211,-7.91411 -2.774461,-0.33866 -6.368615,0.63064 -8.817186,-0.60169 1.209812,-0.63695 2.963726,-0.95282 3.439928,-2.64851 1.439266,-2.53723 -1.053022,-6.342 -3.898514,-6.13072 z"
     style="opacity:1;fill:#c2a569;fill-opacity:1;fill-rule:evenodd;stroke:none;stroke-width:0.26458332;stroke-miterlimit:4;stroke-dasharray:none;stroke-opacity:1" />
  <path
     id="path4508"
     d="m 17.289357,273.71337 c -1.118023,-0.10844 -3.159917,0.0293 -1.644617,1.49175 2.067631,1.94726 -5.83e-4,4.51313 0.147441,6.71615 2.062608,1.43408 5.792543,0.59145 5.522532,-2.44035 -0.05505,-2.21775 0.276393,-6.56083 -3.176469,-5.77176 l -0.304657,-0.002 h -0.0012 z"
     style="opacity:1;fill:#caa864;fill-opacity:1;fill-rule:evenodd;stroke:none;stroke-width:0.26458332;stroke-miterlimit:4;stroke-dasharray:none;stroke-opacity:1" />
  <path
     id="path4510"
     d="m 31.566198,26.159965 c -3.675449,-0.06863 -9.08416,1.826392 -8.552661,6.361644 0.664737,2.019964 2.640856,3.76824 4.844954,2.70164 3.961267,-0.656086 7.058534,-4.344509 7.846895,-8.113591 -0.594659,-1.413148 -2.999696,-0.795692 -4.139188,-0.949693 z"
     style="opacity:1;fill:#cab68d;fill-opacity:1;fill-rule:evenodd;stroke:none;stroke-width:0.26458332;stroke-miterlimit:4;stroke-dasharray:none;stroke-opacity:1" />
  <path
     id="path4587"
     d="m 27.611309,16.803968 c -5.440734,0.129688 -9.862816,5.206714 -9.271905,10.619289 -1.198171,48.388654 -1.170584,96.812393 -0.352333,145.208653 0.811627,37.56013 3.233455,75.09394 3.572654,112.65341 -0.175662,2.47897 -2.632631,4.07239 -3.644828,5.97027 13.390527,1.25933 26.922156,0.33637 40.364949,0.46076 31.876493,-0.30831 63.731474,-1.77292 95.615704,-1.53542 9.11276,-0.34759 18.39535,0.6217 27.40129,-1.02421 3.05807,-1.09983 5.61716,-3.81708 5.31113,-7.2658 1.0345,-23.31232 0.13283,-46.67735 0.18769,-70.00925 -0.43307,-61.59137 -0.59424,-123.239949 -1.43876,-184.793695 -48.35826,1.246218 -96.745254,3.020143 -144.887096,7.977123 -5.471376,0.170596 -11.173523,1.46377 -16.555359,0.42376 -3.562138,-2.432473 -1.205373,-8.887772 2.791621,-9.478502 2.775246,-1.069325 6.264423,-0.137538 8.732625,-1.826751 0.530293,-3.254047 -2.778458,-6.339045 -5.695991,-7.189916 -0.696795,-0.163687 -1.416756,-0.222213 -2.131391,-0.189721 z"
     style="opacity:1;fill:url(#linearGradient5084);fill-opacity:1;fill-rule:evenodd;stroke:none;stroke-width:0.26458332;stroke-miterlimit:4;stroke-dasharray:none;stroke-opacity:1;filter:url(#filter5094)" />
  <path
     style="opacity:0.66500005;fill:url(#linearGradient5102);fill-opacity:1;fill-rule:evenodd;stroke:none;stroke-width:0.26458332;stroke-miterlimit:4;stroke-dasharray:none;stroke-opacity:1;filter:url(#filter5163)"
     d="M 195.07174,5.0195304 C 167.59381,5.8670512 140.09309,6.8107898 112.66958,8.6806201 96.354117,9.6569838 80.042914,10.950852 63.779693,12.685693 c -10.473929,1.200795 -21.157999,1.773603 -31.45244,3.848327 1.387187,2.354077 4.19525,4.154816 3.706269,7.320978 0.792775,3.982636 -1.018825,7.865044 -3.731204,10.605026 0.798112,1.171939 3.253031,0.132695 4.51783,0.34239 3.873464,-0.662144 8.224156,0.01609 11.880642,-0.937574 3.676468,-1.23399 7.928867,-0.653491 11.683614,-0.991974 5.515129,-1.281713 11.760221,-1.066563 17.549813,-1.331305 4.043228,0.09372 7.744804,-1.311174 11.871167,-1.117733 3.130117,-0.264407 6.6378,-0.11571 9.588001,-0.0043 -0.650828,-1.433736 2.228495,-0.585899 2.908705,-0.812009 5.19603,0.467138 10.12191,-1.013761 15.38092,-0.850945 25.9122,-1.251264 51.87772,-1.321113 77.77359,-2.82749 4.64646,-0.05223 9.42889,-2.142514 11.24888,-6.691219 1.41131,-3.486791 -0.1771,-7.113846 -0.92476,-10.4802346 0.86758,-1.5667869 -1.69516,-0.5961876 -2.41217,-1.484167 -2.64547,-1.0978048 -5.31239,-2.6788393 -8.29681,-2.2538956 z"
     id="path4525" />
</svg>
