<?xml version="1.0" encoding="utf-8"?>
<!-- Generator: Adobe Illustrator 13.0.0, SVG Export Plug-In . SVG Version: 6.00 Build 14948)  -->
<!DOCTYPE svg PUBLIC "-//W3C//DTD SVG 1.1//EN" "http://www.w3.org/Graphics/SVG/1.1/DTD/svg11.dtd">
<svg version="1.1" id="Layer_1" xmlns="http://www.w3.org/2000/svg" xmlns:xlink="http://www.w3.org/1999/xlink" x="0px" y="0px"
	 width="1220px" height="988px" viewBox="0 0 1220 988" enable-background="new 0 0 1220 988" xml:space="preserve">
<path fill="#231F20" stroke="#231F20" stroke-width="0.0938" stroke-miterlimit="10" d="M782.259,582"/>
<path fill="#231F20" stroke="#231F20" stroke-width="0.0938" stroke-miterlimit="10" d="M785.255,576"/>
<path fill="#231F20" stroke="#231F20" stroke-width="0.0938" stroke-miterlimit="10" d="M791.246,573"/>
<path fill="#231F20" stroke="#231F20" stroke-width="0.0938" stroke-miterlimit="10" d="M716.351,654c-4.993,9-9.985,19-12.981,28
	c-7.104,18.723-246.582,139.97-254.302,158.552C344,770,567.31,302.905,464,386l-104.926-11.788
	c-8.513-16.309-11.104-34.841-13.322-53.004c-3.702-36.694-4.812-73.389-4.812-110.456c13.324,2.964,25.169,11.12,38.492,13.342
	c6.665-49.668,21.84-101.19,58.114-137.145c32.202-32.989,78.471-47.073,123.257-48.926c52.929-2.967,110.302,6.299,151.387,42.254
	c42.566,36.695,59.965,93.407,65.885,147.522c12.586-7.414,26.28-12.602,40.346-17.049c0.74,38.177-0.74,76.726-4.812,114.533
	c-2.59,20.758-5.923,42.626-19.986,58.564c-9.996,13.715-26.652,19.646-43.31,18.533c-13.322,21.5-30.72,40.402-51.448,55.229
	c21.47,24.465,41.827,50.412,57.372,78.95C762.9,550.648,778.378,605.77,788,618"/>
<path fill="#231F20" stroke="#231F20" stroke-width="0.0938" stroke-miterlimit="10" d="M785.191,608.102
	c5.561,26.685,4.076,54.857-2.227,81.173c-13.711,54.488-40.03,104.526-69.684,151.602c-87.949-0.369-176.258,1.079-264.214-0.324
	c-1.01-0.016-2.021-0.032-3.031-0.049"/>
<path fill="#231F20" stroke="#231F20" stroke-width="0.0938" stroke-miterlimit="10" d="M639.589,533.089"/>
<path fill="#231F20" stroke="#231F20" stroke-width="0.0938" stroke-miterlimit="10" d="M279.833,468.5
	c-21.333,1.333-35.587,27.535-31.167,33.501c5.49,7.409,19.398,21.714,29.459,22.329c6.302,16.68,11.862,33.732,17.793,50.781
	c-11.862,5.191-23.353,11.489-33.73,19.274c-7.785-8.524-15.569-16.679-24.093-24.834c8.154-18.533-1.853-44.11-24.093-44.479
	c-22.982-4.075-41.144,24.094-29.282,43.368c7.414,14.453,24.462,17.421,38.919,14.084c7.783,8.897,15.938,17.422,24.094,25.204
	c-4.449,6.302-8.526,12.604-12.974,18.906c-22.61-10.751-47.816-18.906-72.65-12.604c-28.17,7.783-46.703,38.178-41.144,66.72
	c5.932,37.435,36.696,65.234,68.573,83.029c-2.224,24.093,11.491,49.666,34.842,57.821c23.722,10.009,51.152-0.742,65.237-20.756
	c13.343,5.188,27.057,8.526,41.143,10.379c5.932,5.187,12.231,9.635,18.533,13.716c18.533,5.187,38.919,4.817,55.229-5.561
	c6.302-5.934,11.862-12.234,17.05-18.906c0.193,0.338,0.984-0.085,2.32-1.203C453.295,774.657,707.907,386,716,386l84.76-11.788
	c8.524-16.309,11.12-34.841,13.342-53.004c3.707-36.694,4.818-73.389,4.818-110.456c-13.343,2.964-25.204,11.12-38.546,13.342
	c-6.675-49.668-21.871-101.19-58.195-137.145c-32.248-32.989-78.581-47.073-123.431-48.926
	c-53.004-2.967-110.457,6.299-151.601,42.254c-42.625,36.695-60.047,93.407-65.977,147.522
	c-12.604-7.414-26.317-12.602-40.404-17.049c-0.74,38.177,0.742,76.726,4.82,114.533c2.594,20.758,5.931,42.626,20.015,58.564
	c10.009,13.715,26.689,19.646,43.368,18.533c13.342,21.5,30.764,40.402,51.521,55.229c-21.499,24.464-41.885,50.412-57.452,78.95
	c-6.673,14.087-20.758,22.981-30.396,35.212c-18.904-4.817-38.548-5.187-57.823-2.591c-5.929-17.053-11.86-34.475-17.791-51.893
	c9.003-8.255,13.709-17.001,11.137-28.124C309.28,477.219,290.833,469.5,279.833,468.5"/>
<path fill="#FEFEFE" stroke="#FEFEFE" stroke-width="0.0938" stroke-miterlimit="10" d="M639.522,459.835
	c-47.075,15.94-100.821,11.862-144.189-12.602c-32.248-17.791-57.452-46.704-73.761-79.321c-8.896,3.336-19.646,10.007-28.913,3.336
	c-10.749-8.156-15.566-22.24-17.419-35.584c-3.336-26.687-5.931-53.746-5.56-80.804c14.456,11.491,22.611,29.282,23.351,47.815
	c8.155,0,15.939,0,24.093,0c2.595,14.456,4.82,28.912,7.413,42.998c3.706,1.111,11.12,3.707,14.826,4.817
	c-10.378-30.023-24.464-62.27-16.309-94.519l0,0c4.448-11.859,12.231-28.911,27.8-26.317c40.401,4.82,77.838,23.724,118.982,25.946
	c44.478,3.707,86.365-14.826,128.618-24.093c9.267-1.482,20.76-4.817,28.173,2.224c12.6,12.974,17.049,32.249,14.826,50.039
	c-2.968,22.611-10.751,44.48-16.68,66.349c4.444-1.482,8.894-2.964,13.342-4.447c2.596-14.086,5.191-28.542,7.414-42.626
	c6.671-0.371,13.715-0.371,20.755-0.371c0-18.904,9.64-35.955,23.354-48.557c0.369,25.947-1.854,52.264-5.19,77.839
	c-1.853,15.198-6.302,31.877-19.644,40.401c-9.268,4.82-18.906-1.853-27.8-4.447c-4.818,9.638-9.64,18.904-13.715,28.911
	l-0.37-0.371c-5.933-4.818-13.347-7.782-21.128-8.524c-4.449,9.637-3.707,30.764-19.275,28.17"/>
<path fill="#FEFEFE" stroke="#FEFEFE" stroke-width="0.0938" stroke-miterlimit="10" d="M673.251,428.329
	c-3.707,11.491-13.716,11.862-23.724,10.749"/>
<path fill="#231F20" stroke="#231F20" stroke-width="0.0938" stroke-miterlimit="10" d="M662.132,285.625
	c-7.045,14.827-21.498,22.982-36.697,27.799c-10.006,1.113-11.859,12.603-18.902,17.422c-9.638-1.481-2.965-15.197,2.964-17.792
	C628.029,306.382,648.416,301.193,662.132,285.625L662.132,285.625z"/>
<path fill="#231F20" stroke="#231F20" stroke-width="0.0938" stroke-miterlimit="10" d="M618.764,326.397
	c13.715-7.414,26.318,12.974,12.973,20.758C618.395,356.05,606.532,334.924,618.764,326.397L618.764,326.397z"/>
<path fill="#8DB431" stroke="#8DB431" stroke-width="0.0938" stroke-miterlimit="10" d="M670.297,386.827
	c5.397,0,2.596,10.749,4.076,15.938c1.484,4.82,1.781,13.965,7.044,13.715c15.691-0.742,15.938-20.14,20.386-29.777
	c7.783,0.742,15.688,5.065,21.621,9.884c-20.386,28.913-51.824,50.917-85.002,63.631"/>
<line fill="#8DB431" stroke="#8DB431" stroke-width="0.0938" stroke-miterlimit="10" x1="663.984" y1="373.843" x2="663.984" y2="373.843"/>
<path fill="#231F20" stroke="#231F20" stroke-width="0.0938" stroke-miterlimit="10" d="M560.941,378.696
	c6.3-0.742,13.713,5.189,8.524,11.12C560.199,393.892,561.311,384.626,560.941,378.696L560.941,378.696z"/>
<path fill="#B7DAF0" stroke="#B7DAF0" stroke-width="0.0938" stroke-miterlimit="10" d="M744.418,574.742
	c8.156,19.644,15.196,40.031,15.938,61.528c1.483,32.618-8.524,64.496-20.387,94.519c-95.26,0-190.519,0-285.78,0
	c0.742-2.965,1.854-8.897,2.595-12.231c16.309-0.373,34.471-2.595,46.333-15.199c17.791-15.564,21.127-42.994,11.491-63.75
	c21.498-30.026,22.24-75.986-5.559-102.306c-15.94-16.679-40.773-19.644-62.644-17.422c10.379-13.711,21.128-27.426,32.248-40.399
	l0,0c30.396,24.835,64.124,46.333,101.932,57.821c30.021-11.119,59.675-25.573,84.51-46.332c5.934-4.818,11.861-9.267,18.906-11.489
	"/>
<path fill="#FEFEFE" stroke="#FEFEFE" stroke-width="0.0938" stroke-miterlimit="10" d="M264.782,495.05
	c2.595-7.415,10.751-17.421,19.275-10.379c8.524,4.447,5.56,19.273-4.078,20.015C272.937,506.539,268.859,499.495,264.782,495.05
	L264.782,495.05z"/>
<path fill="#FEFEFE" stroke="#FEFEFE" stroke-width="0.0938" stroke-miterlimit="10" d="M516.462,486.153
	c40.773,12.231,85.621,15.196,125.652-0.372c0,1.113,0.373,2.596,0.373,3.336c-19.645,8.897-40.033,17.422-61.901,17.422
	C557.975,506.539,535.735,498.015,516.462,486.153L516.462,486.153z"/>
<path fill="#FEFEFE" stroke="#FEFEFE" stroke-width="0.0938" stroke-miterlimit="10" d="M444.923,534.708
	c18.533-5.187,40.401-1.854,55.229,11.492c24.093,24.093,23.353,69.314-2.965,91.554c-4.078,4.818-14.084,4.818-15.937-2.226
	c-0.742-10.008,11.12-13.715,14.456-22.239c10.377-20.014,6.3-50.04-15.569-60.786c-20.015-10.009-42.626,0-58.935,12.973
	c-15.568,10.747-25.946,26.315-38.548,40.03c-7.784,2.596-15.94-7.044-9.267-13.346
	C391.178,567.329,414.899,543.974,444.923,534.708L444.923,534.708z"/>
<path fill="#231F20" stroke="#231F20" stroke-width="0.0938" stroke-miterlimit="10" d="M639.522,607.729
	c8.524-23.351,18.902-45.59,28.537-68.572c8.156,19.645,16.681,38.92,24.467,58.564c-7.786-3.335-15.199-7.04-22.982-10.747
	C659.535,594.014,649.9,601.058,639.522,607.729L639.522,607.729z"/>
<path fill="#FEFEFE" stroke="#FEFEFE" stroke-width="0.0938" stroke-miterlimit="10" d="M206.589,564.361
	c-10.38-2.965-7.785-21.498,3.335-20.756c9.638-2.223,12.231,8.524,13.344,15.568C218.449,562.508,212.889,566.956,206.589,564.361
	L206.589,564.361z"/>
<path fill="#B7DAF0" stroke="#B7DAF0" stroke-width="0.0938" stroke-miterlimit="10" d="M411.935,591.049
	c12.231-11.861,25.575-24.093,42.255-28.541c12.602-4.445,28.542,2.595,32.248,15.568c3.707,11.12,0.74,22.981-3.707,33.359
	c-15.198-3.707-31.135-1.48-45.222,5.561C429.726,607.359,421.201,598.835,411.935,591.049L411.935,591.049z"/>
<path fill="#FEFEFE" stroke="#FEFEFE" stroke-width="0.0938" stroke-miterlimit="10" d="M258.481,646.647
	c-1.854-2.595-5.56-7.781-7.413-10.377l0,0c20.757-37.809,67.83-56.71,109.345-48.186c-3.335,10.75,0.741,24.462,12.603,28.168
	c10.378,4.822,20.015-3.706,26.317-11.12c9.267,7.414,17.42,15.942,24.833,25.578c-8.524,13.342-14.455,29.653-9.635,45.591
	c2.964,14.826,13.713,25.946,25.575,34.102c-3.707,13.715-8.526,27.798-17.421,38.919c-9.267-15.938-15.567-35.582-32.989-44.479
	c-27.429-17.049-66.719-3.707-78.581,25.946c-9.636,19.644-4.075,43.369,8.897,60.048c-7.784-2.227-15.939-4.817-23.724-7.413
	c1.484-14.458,0-30.396-9.267-42.626c-10.378-15.938-29.282-22.613-47.444-23.724c-2.964-13.343-2.964-27.059-2.964-40.772
	c7.414-1.112,16.427-1.035,20.755-7.783"/>
<path fill="#231F20" stroke="#231F20" stroke-width="0.0938" stroke-miterlimit="10" d="M340.767,592.902
	c7.414-4.817,14.827,8.897,6.302,10.378C339.285,607.359,336.32,598.093,340.767,592.902L340.767,592.902z"/>
<path fill="#231F20" stroke="#231F20" stroke-width="0.0938" stroke-miterlimit="10" d="M330.76,603.653
	c5.932-2.226,8.153,0,6.3,5.929C331.132,611.808,328.907,609.582,330.76,603.653L330.76,603.653z"/>
<path fill="#231F20" stroke="#231F20" stroke-width="0.0938" stroke-miterlimit="10" d="M339.656,614.03
	c0.741-6.671,8.524-10.377,14.084-5.56c2.595,3.707,1.484,8.525,1.484,12.974C348.551,621.813,340.767,622.928,339.656,614.03
	L339.656,614.03z"/>
<path fill="#FEFEFE" stroke="#FEFEFE" stroke-width="0.0938" stroke-miterlimit="10" d="M163.221,627.004
	c24.463-7.782,49.668,2.965,71.167,14.085c7.042,4.448,19.273,8.896,14.826,19.645c-1.482,1.114-4.078,2.968-5.188,3.706
	c-18.904-7.413-35.584-20.756-55.971-22.979c-14.456-3.338-30.766,3.707-36.695,17.791c-5.56,14.454,0.74,30.022,9.267,41.884
	c14.084,20.756,36.324,34.103,58.563,44.849c8.896,2.968,4.818,18.164-4.817,15.199c-25.946-10.377-49.299-26.688-66.35-48.558
	c-11.12-15.196-18.162-34.841-13.714-53.747C137.646,644.053,149.507,632.195,163.221,627.004L163.221,627.004z"/>
<path fill="#FEFEFE" stroke="#FEFEFE" stroke-width="0.0938" stroke-miterlimit="10" d="M440.105,639.608
	c7.042-8.156,18.162-11.12,28.911-11.12c1.113,7.413,2.224,16.307,9.267,20.756c5.931,5.56,14.455,2.964,21.499,2.223
	c2.964,14.456,0.37,30.024-11.12,40.034c-21.128-5.934-42.625-17.054-54.116-36.697
	C430.839,649.244,437.139,644.053,440.105,639.608L440.105,639.608z"/>
<path fill="#FEFEFE" stroke="#FEFEFE" stroke-width="0.0938" stroke-miterlimit="10" d="M162.85,677.043
	c-3.706-8.524,1.853-18.532,10.009-22.239c16.309-3.707,31.877,5.19,46.332,11.119c-2.224,18.534-1.853,37.436,2.224,55.6
	c-3.335,2.223-7.042,4.076-10.749,5.929C191.021,715.221,169.523,700.395,162.85,677.043L162.85,677.043z"/>
<path fill="#231F20" stroke="#231F20" stroke-width="0.0938" stroke-miterlimit="10" d="M319.641,667.408
	c21.498-12.974,50.039-5.561,66.348,12.973c-16.309-4.821-34.101-10.751-50.41-3.707c-21.127,5.93-30.024,27.428-37.437,45.591
	C296.288,702.248,301.107,678.896,319.641,667.408L319.641,667.408z"/>
<path fill="#FEFEFE" stroke="#FEFEFE" stroke-width="0.0938" stroke-miterlimit="10" d="M430.097,657.768
	c14.086,17.053,32.619,30.396,54.117,37.066c-11.491,5.191-24.835,6.672-35.955-0.369
	C434.917,687.794,430.097,671.853,430.097,657.768L430.097,657.768z"/>
<path fill="#FEFEFE" stroke="#FEFEFE" stroke-width="0.0938" stroke-miterlimit="10" d="M343.363,713.367
	c14.455-7.413,31.506-3.334,45.591,2.965c-15.567-0.369-32.618-1.48-45.962,8.155c-12.231,7.044-18.904,19.645-25.946,31.137
	C317.787,738.201,327.054,720.411,343.363,713.367L343.363,713.367z"/>
<path fill="#8DB431" stroke="#8DB431" stroke-width="0.0938" stroke-miterlimit="10" d="M358.931,730.047
	c27.429-10.009,59.306,14.085,57.081,43.368c0.372,28.542-31.135,49.67-57.823,40.03c-25.576-6.67-37.066-38.918-25.204-61.527
	C338.544,741.908,347.811,733.012,358.931,730.047L358.931,730.047z"/>
<path fill="#FEFEFE" stroke="#FEFEFE" stroke-width="0.0938" stroke-miterlimit="10" d="M230.311,737.46
	c15.197-4.817,30.764,0.374,41.884,10.751c-17.792,15.196-32.247,34.472-40.773,56.71c-12.602-5.929-21.869-17.421-23.351-31.506
	c9.267,0.369,20.016-1.111,25.205-10.377C239.207,754.883,234.018,745.246,230.311,737.46L230.311,737.46z"/>
<path fill="#58585B" stroke="#58585B" stroke-width="0.0938" stroke-miterlimit="10" d="M435.286,766.001
	c4.82-8.896,10.009-18.162,15.198-27.057c95.261,0.742,190.52-0.743,285.41,0.742c-10.008,22.609-21.128,44.849-34.101,65.978
	c-2.596,7.781-11.12,6.301-17.791,6.67c-33.733-0.369-67.834,0-101.563,0c-1.111-15.938-1.111-31.875-0.741-47.816
	c-6.671-2.222-14.456-5.929-18.902,1.853c-1.854,15.199-0.372,30.396-0.372,45.595c-33.73,0.739-67.461,0-101.191,0.369
	C451.597,797.508,443.441,781.569,435.286,766.001L435.286,766.001z"/>
<path fill="#FEFEFE" stroke="#FEFEFE" stroke-width="0.0938" stroke-miterlimit="10" d="M252.18,774.899"/>
<path fill="#FEFEFE" stroke="#FEFEFE" stroke-width="0.0938" stroke-miterlimit="10" d="M256,776
	c4.818-4.079,14.342-20.007,19.533-23.713c4.447,13.714,5.559,30.025-4.449,41.514c-7.784,11.12-22.24,12.975-34.841,13.716"/>
<path fill="#8DB431" stroke="#8DB431" stroke-width="0.0938" stroke-miterlimit="10" d="M446.037,840.503
	c-9.638,1.485-19.646,2.969-28.913,6.303C463.085,864.97,520,845,560.199,880.906c8.933,7.979-16.68,14.457-27.429,17.792
	c-31.506,7.785-64.125,9.64-96.743,10.751c-48.557,0.741-98.225-0.743-145.669-12.231c-9.267-2.227-16.358-2.218-25.577-12.604
	c-3.658-4.122,4.078-10.75,10.008-12.604C311.856,855.702,353.08,855.67,392,849c-12.974-14.089-33.637-7.484-51.603-12.942
	c-36.397-11.058,0-7.413,0-10.008c2.223,0,6.672-0.743,8.896-1.11l0,0c18.533,5.187,38.919,4.817,55.229-5.561
	c10.008,1.11,20.015,2.222,29.653,3.706"/>
<path fill="#231F20" stroke="#231F20" stroke-width="0.0938" stroke-miterlimit="10" d="M528.764,326.397
	c13.715-7.413,26.318,12.974,12.973,20.758C528.395,356.051,516.532,334.924,528.764,326.397L528.764,326.397z"/>
<path fill="#231F20" stroke="#231F20" stroke-width="0.0938" stroke-miterlimit="10" d="M493.132,287.625
	c7.869,14.826,24.013,22.981,40.99,27.799c11.177,1.113,13.247,12.604,21.114,17.422c10.765-1.481,3.312-15.197-3.311-17.793
	C531.224,308.383,508.452,303.193,493.132,287.625L493.132,287.625z"/>
<path fill="#231F20" stroke="#231F20" stroke-width="0.0938" stroke-miterlimit="10" d="M609.028,378.88
	c-6.645-0.741-14.462,5.189-8.99,11.12C609.812,394.075,608.64,384.81,609.028,378.88L609.028,378.88z"/>
<path fill="#231F20" stroke="#231F20" stroke-width="0.0938" stroke-miterlimit="10" d="M266.656,644.03
	c0.741-6.671,8.524-10.377,14.084-5.56c2.595,3.707,0.484,10.525,0.484,14.974C274.551,653.813,267.767,652.928,266.656,644.03
	L266.656,644.03z"/>
<path fill="#231F20" stroke="#231F20" stroke-width="0.0938" stroke-miterlimit="10" d="M259.767,626.902
	c7.414-4.817,14.827,8.897,6.302,10.378C258.285,641.359,255.32,632.093,259.767,626.902L259.767,626.902z"/>
<path fill="#231F20" stroke="#231F20" stroke-width="0.0938" stroke-miterlimit="10" d="M273.7,626.071
	c5.932-2.226,8.153,0,6.3,5.929C274.071,634.226,271.846,632,273.7,626.071L273.7,626.071z"/>
<path fill="#231F20" stroke="#231F20" stroke-width="0.0938" stroke-miterlimit="10" d="M755.53,633.588
	c-17.967-3.389-36.958-6.051-48.606-21.362c-15.952-17.791-13.727-47.444,4.453-62.642c13.357-10.379,31.166-7.784,46.749-5.932
	c-3.711-27.799-8.164-55.969-10.762-83.769c-1.113-17.051,0-37.806,14.841-48.557c18.922-11.859,48.976-8.895,59.362,12.604
	c13.356,28.54,11.873,60.789,20.406,90.812c10.39-25.946,11.13-54.116,19.666-80.805c3.71-11.491,11.13-24.093,24.116-27.058
	c18.921-4.078,42.295,0.74,53.054,18.534c9.646,15.938,8.535,35.213,7.05,53.003c-2.968,31.136-7.422,61.902-10.759,92.666
	c-4.083,26.316-12.243,54.488-33.393,72.279c-16.042,12.27-35.809,12.189-55.526,11.532"/>
<path fill="#231F20" stroke="#231F20" stroke-width="0.0938" stroke-miterlimit="10" d="M839.611,631.992c-1.001-2,1.001-4,0-6
	h-3.003c-1.001-2,1.001-4,0-6c0,0-2.002,0-3.003,0"/>
<path fill="#FEFEFE" stroke="#FEFEFE" stroke-width="0.0938" stroke-miterlimit="10" d="M914.693,434.308
	c-8.904-4.818-25.229-8.895-28.938,4.449c-10.391,31.505-11.131,65.235-24.488,96c9.646,2.594,24.488,1.854,21.89,16.309
	c-20.776-1.482-41.553-8.155-62.33-2.596c-7.048,1.854-21.149,5.932-17.811-7.042c5.565-4.446,13.729-4.817,20.778-7.042
	c-14.47-30.765-10.389-65.608-23.003-96.743c-3.34-10.75-17.067-10.378-25.229-5.931c-6.678,11.12-3.711,24.464-2.968,36.697
	c4.452,34.471,8.903,68.941,13.727,103.414c-18.921-1.854-37.472-6.303-56.765-4.82c-15.213,7.414-9.647,31.137,4.822,36.326
	c27.085,8.896,57.879,8.154,80.512,27.428c20.405,0,41.183,0,61.589-1.854c21.147-6.67,27.826-31.134,32.648-50.409
	c4.825-34.471,8.904-68.943,12.615-103.414C922.485,461.366,924.712,445.058,914.693,434.308L914.693,434.308z"/>
</svg>
